<?xml version="1.0" standalone="no"?>
<!DOCTYPE svg PUBLIC "-//W3C//DTD SVG 20010904//EN"
 "http://www.w3.org/TR/2001/REC-SVG-20010904/DTD/svg10.dtd">
<svg version="1.0" xmlns="http://www.w3.org/2000/svg"
 width="100.000000pt" height="100.000000pt" viewBox="0 0 100.000000 100.000000"
 preserveAspectRatio="xMidYMid meet">

<g transform="translate(0.000000,100.000000) scale(0.100000,-0.100000)"
fill="#000000" stroke="none">
<path d="M440 907 l0 -92 -49 -18 c-70 -24 -135 -93 -157 -162 -13 -40 -23
-55 -36 -55 -24 0 -58 -35 -58 -60 0 -11 9 -29 20 -40 19 -19 33 -20 340 -20
307 0 321 1 340 20 11 11 20 29 20 40 0 25 -34 60 -58 60 -13 0 -23 15 -36 55
-22 69 -87 138 -157 162 l-49 18 0 92 c0 86 -1 93 -20 93 -19 0 -20 -7 -20
-90 0 -83 -1 -90 -20 -90 -19 0 -20 7 -20 90 0 83 -1 90 -20 90 -19 0 -20 -7
-20 -93z m175 -155 c59 -30 106 -87 119 -144 l6 -28 -240 0 -240 0 6 28 c8 35
52 100 85 124 69 51 186 60 264 20z m200 -232 c0 -13 -42 -15 -309 -18 -181
-1 -314 2 -319 7 -28 28 10 31 316 29 270 -3 312 -5 312 -18z"/>
<path d="M310 385 c-15 -18 -10 -45 13 -59 34 -22 73 27 47 59 -16 19 -44 19
-60 0z"/>
<path d="M470 385 c-26 -32 13 -81 48 -59 22 14 27 41 12 59 -16 19 -44 19
-60 0z"/>
<path d="M630 385 c-26 -32 13 -81 48 -59 22 14 27 41 12 59 -16 19 -44 19
-60 0z"/>
<path d="M230 225 c-26 -32 13 -81 48 -59 22 14 27 41 12 59 -16 19 -44 19
-60 0z"/>
<path d="M390 225 c-15 -18 -10 -45 13 -59 34 -22 73 27 47 59 -16 19 -44 19
-60 0z"/>
<path d="M550 225 c-15 -18 -10 -45 13 -59 34 -22 73 27 47 59 -16 19 -44 19
-60 0z"/>
<path d="M710 225 c-26 -32 13 -81 48 -59 22 14 27 41 12 59 -16 19 -44 19
-60 0z"/>
<path d="M150 65 c-15 -18 -10 -45 13 -59 34 -22 73 27 47 59 -16 19 -44 19
-60 0z"/>
<path d="M310 65 c-26 -32 13 -81 48 -59 22 14 27 41 12 59 -16 19 -44 19 -60
0z"/>
<path d="M470 65 c-26 -32 13 -81 48 -59 22 14 27 41 12 59 -16 19 -44 19 -60
0z"/>
<path d="M630 65 c-26 -32 13 -81 48 -59 22 14 27 41 12 59 -16 19 -44 19 -60
0z"/>
<path d="M790 65 c-26 -32 13 -81 48 -59 22 14 27 41 12 59 -16 19 -44 19 -60
0z"/>
</g>
</svg>
