<?xml version="1.0" standalone="no"?>
<!DOCTYPE svg PUBLIC "-//W3C//DTD SVG 20010904//EN"
 "http://www.w3.org/TR/2001/REC-SVG-20010904/DTD/svg10.dtd">
<svg version="1.0" xmlns="http://www.w3.org/2000/svg"
 width="100.000000pt" height="100.000000pt" viewBox="0 0 100.000000 100.000000"
 preserveAspectRatio="xMidYMid meet">

<g transform="translate(0.000000,100.000000) scale(0.100000,-0.100000)"
fill="#000000" stroke="none">
<path d="M264 845 c-4 -8 -16 -15 -28 -15 -13 0 -32 -10 -44 -23 -22 -23 -22
-29 -22 -308 l0 -286 25 -23 c14 -13 25 -29 25 -37 0 -9 16 -13 55 -13 42 0
55 3 55 15 0 13 25 15 165 15 140 0 165 -2 165 -15 0 -12 13 -15 60 -15 43 0
60 4 60 13 0 8 11 24 25 37 l25 23 0 287 0 287 -23 21 c-13 12 -33 22 -44 22
-12 0 -23 7 -27 15 -8 22 -174 22 -182 0 -4 -10 -21 -15 -54 -15 -33 0 -50 5
-54 15 -4 12 -24 15 -91 15 -67 0 -87 -3 -91 -15z m176 -5 c0 -6 -35 -10 -85
-10 -50 0 -85 4 -85 10 0 6 35 10 85 10 50 0 85 -4 85 -10z m290 0 c0 -6 -35
-10 -85 -10 -50 0 -85 4 -85 10 0 6 35 10 85 10 50 0 85 -4 85 -10z m64 -46
c11 -10 16 -34 16 -75 l0 -59 -310 0 -310 0 0 59 c0 95 -13 91 310 91 240 0
281 -2 294 -16z m16 -358 c0 -182 -2 -217 -16 -230 -13 -14 -54 -16 -294 -16
-240 0 -281 2 -294 16 -14 13 -16 48 -16 230 l0 214 310 0 310 0 0 -214z
m-490 -276 c0 -5 -20 -10 -45 -10 -25 0 -45 5 -45 10 0 6 20 10 45 10 25 0 45
-4 45 -10z m450 0 c0 -5 -22 -10 -50 -10 -27 0 -50 5 -50 10 0 6 23 10 50 10
28 0 50 -4 50 -10z"/>
<path d="M734 765 c-4 -9 -2 -21 4 -27 15 -15 44 -1 40 19 -4 23 -36 29 -44 8z
m36 -10 c0 -8 -7 -15 -15 -15 -8 0 -15 7 -15 15 0 8 7 15 15 15 8 0 15 -7 15
-15z"/>
<path d="M250 756 c-27 -33 18 -72 48 -42 13 13 14 20 6 34 -15 23 -38 26 -54
8z m29 -13 c1 21 21 13 21 -9 0 -19 -28 -30 -42 -16 -6 6 -7 19 -3 29 7 17 8
17 15 -2 8 -18 9 -18 9 -2z"/>
<path d="M360 756 c-27 -33 18 -72 48 -42 13 13 14 20 6 34 -15 23 -38 26 -54
8z m29 -13 c1 21 21 13 21 -9 0 -19 -28 -30 -42 -16 -6 6 -7 19 -3 29 7 17 8
17 15 -2 8 -18 9 -18 9 -2z"/>
<path d="M470 756 c-27 -33 18 -72 48 -42 13 13 14 20 6 34 -15 23 -38 26 -54
8z m29 -13 c1 21 21 13 21 -9 0 -19 -28 -30 -42 -16 -6 6 -7 19 -3 29 7 17 8
17 15 -2 8 -18 9 -18 9 -2z"/>
<path d="M580 756 c-27 -33 18 -72 48 -42 13 13 14 20 6 34 -15 23 -38 26 -54
8z m29 -13 c1 21 21 13 21 -9 0 -19 -28 -30 -42 -16 -6 6 -7 19 -3 29 7 17 8
17 15 -2 8 -18 9 -18 9 -2z"/>
<path d="M260 590 c0 -6 87 -10 240 -10 153 0 240 4 240 10 0 6 -87 10 -240
10 -153 0 -240 -4 -240 -10z"/>
<path d="M272 518 c-8 -8 -12 -50 -12 -125 0 -101 2 -113 19 -123 12 -6 102
-10 225 -10 220 0 237 4 235 53 -1 20 -2 21 -6 2 -11 -44 -16 -45 -232 -45
-148 0 -210 3 -219 12 -17 17 -16 212 1 226 8 7 71 13 153 15 l139 3 -145 2
c-103 1 -150 -2 -158 -10z"/>
<path d="M732 390 c0 -19 2 -27 5 -17 2 9 2 25 0 35 -3 9 -5 1 -5 -18z"/>
</g>
</svg>
