<?xml version="1.0" standalone="no"?>
<!DOCTYPE svg PUBLIC "-//W3C//DTD SVG 20010904//EN"
 "http://www.w3.org/TR/2001/REC-SVG-20010904/DTD/svg10.dtd">
<svg version="1.0" xmlns="http://www.w3.org/2000/svg"
 width="100.000000pt" height="100.000000pt" viewBox="0 0 100.000000 100.000000"
 preserveAspectRatio="xMidYMid meet">

<g transform="translate(0.000000,100.000000) scale(0.100000,-0.100000)"
fill="#000000" stroke="none">
<path d="M160 980 c-19 -19 -20 -33 -20 -450 0 -417 1 -431 20 -450 11 -11 25
-20 30 -20 6 0 10 -8 10 -18 0 -29 21 -42 70 -42 49 0 70 13 70 42 0 17 13 18
160 18 147 0 160 -1 160 -18 0 -29 21 -42 70 -42 49 0 70 13 70 42 0 10 4 18
10 18 5 0 19 9 30 20 19 19 20 33 20 450 0 417 -1 431 -20 450 -19 19 -33 20
-340 20 -307 0 -321 -1 -340 -20z m658 -182 l3 -158 -321 0 -320 0 0 153 c0
85 3 157 7 160 4 4 146 6 317 5 l311 -3 3 -157z m0 -445 l-3 -248 -315 0 -315
0 -3 248 -2 247 320 0 320 0 -2 -247z m-518 -303 c0 -5 -13 -10 -30 -10 -16 0
-30 5 -30 10 0 6 14 10 30 10 17 0 30 -4 30 -10z m460 0 c0 -5 -13 -10 -30
-10 -16 0 -30 5 -30 10 0 6 14 10 30 10 17 0 30 -4 30 -10z"/>
<path d="M265 867 c-3 -7 -5 -47 -3 -88 2 -58 6 -74 18 -74 12 0 15 16 15 84
0 59 -4 86 -12 88 -7 3 -15 -2 -18 -10z"/>
<path d="M265 527 c-3 -7 -5 -47 -3 -88 2 -58 6 -74 18 -74 12 0 15 16 15 84
0 59 -4 86 -12 88 -7 3 -15 -2 -18 -10z"/>
</g>
</svg>
