<?xml version="1.0" standalone="no"?>
<!DOCTYPE svg PUBLIC "-//W3C//DTD SVG 20010904//EN"
 "http://www.w3.org/TR/2001/REC-SVG-20010904/DTD/svg10.dtd">
<svg version="1.0" xmlns="http://www.w3.org/2000/svg"
 width="100.000000pt" height="100.000000pt" viewBox="0 0 100.000000 100.000000"
 preserveAspectRatio="xMidYMid meet">

<g transform="translate(0.000000,100.000000) scale(0.100000,-0.100000)"
fill="#000000" stroke="none">
<path d="M20 820 c-19 -19 -20 -33 -20 -320 0 -287 1 -301 20 -320 11 -11 33
-20 50 -20 22 0 30 -5 30 -18 0 -29 21 -42 70 -42 49 0 70 13 70 42 0 17 16
18 260 18 244 0 260 -1 260 -18 0 -29 21 -42 70 -42 49 0 70 13 70 42 0 13 8
18 30 18 17 0 39 9 50 20 19 19 20 33 20 320 0 287 -1 301 -20 320 -19 19 -33
20 -480 20 -447 0 -461 -1 -480 -20z m935 -320 l0 -295 -455 0 -455 0 -3 285
c-1 157 0 290 3 297 3 11 98 13 457 11 l453 -3 0 -295z m-755 -350 c0 -5 -13
-10 -30 -10 -16 0 -30 5 -30 10 0 6 14 10 30 10 17 0 30 -4 30 -10z m660 0 c0
-5 -13 -10 -30 -10 -16 0 -30 5 -30 10 0 6 14 10 30 10 17 0 30 -4 30 -10z"/>
<path d="M100 500 l0 -240 350 0 350 0 0 240 0 240 -350 0 -350 0 0 -240z
m660 0 l0 -200 -310 0 -310 0 0 200 0 200 310 0 310 0 0 -200z"/>
<path d="M272 581 c-63 -22 -81 -36 -65 -52 8 -8 26 -5 67 10 71 26 102 26
166 1 65 -25 109 -25 190 3 45 15 66 28 68 41 4 21 12 21 -110 -10 -67 -17
-69 -17 -135 4 -81 27 -111 27 -181 3z"/>
<path d="M272 461 c-63 -22 -81 -36 -65 -52 8 -8 26 -5 67 10 71 26 102 26
166 1 65 -25 109 -25 190 3 45 15 66 28 68 41 4 21 12 21 -110 -10 -67 -17
-69 -17 -135 4 -81 27 -111 27 -181 3z"/>
<path d="M850 665 c-26 -32 13 -81 48 -59 34 22 22 74 -18 74 -10 0 -23 -7
-30 -15z"/>
<path d="M850 525 c-26 -32 13 -81 48 -59 22 14 27 41 12 59 -16 19 -44 19
-60 0z"/>
<path d="M850 385 c-26 -32 13 -81 48 -59 22 14 27 41 12 59 -16 19 -44 19
-60 0z"/>
</g>
</svg>
