<?xml version="1.0" standalone="no"?>
<!DOCTYPE svg PUBLIC "-//W3C//DTD SVG 20010904//EN"
 "http://www.w3.org/TR/2001/REC-SVG-20010904/DTD/svg10.dtd">
<svg version="1.0" xmlns="http://www.w3.org/2000/svg"
 width="100.000000pt" height="100.000000pt" viewBox="0 0 100.000000 100.000000"
 preserveAspectRatio="xMidYMid meet">

<g transform="translate(0.000000,100.000000) scale(0.100000,-0.100000)"
fill="#000000" stroke="none">
<path d="M0 540 l0 -320 500 0 500 0 0 320 0 320 -500 0 -500 0 0 -320z m960
0 l0 -280 -460 0 -460 0 0 280 0 280 460 0 460 0 0 -280z"/>
<path d="M205 169 c-4 -6 -3 -15 2 -20 5 -5 130 -8 299 -7 249 3 289 5 289 18
0 13 -40 15 -292 18 -204 2 -294 -1 -298 -9z"/>
</g>
</svg>
